<svg xmlns="http://www.w3.org/2000/svg" width="180.367" height="53.564" viewBox="0 0 180.367 53.564">
  <g id="Gruppe_1" data-name="Gruppe 1" transform="translate(1.431 0.998)">
    <path id="Auswahl" d="M81.424,59.592c1.5-.179,1.736-.312,2.993.312,3.113-1.205,3.472-4.776,2.275-5.312-.6-.357-1.616-.089-2.275,0A3.991,3.991,0,0,0,81.424,59.592Zm14.007.312,4.25-.312,1.676-5.4a10.119,10.119,0,0,0-3.711.357C95.791,55.4,95.491,58.432,95.432,59.9ZM57.6,61.2c.718,1.7,2.155,1.7,4.25,2.1l8.919,1.428a155.345,155.345,0,0,0,36.993.357c2.215-.223,9.039-.8,10.476-1.83a2.167,2.167,0,0,0,.958-1.428l-15.264,1.161-8.5.446-4.25.268A171.182,171.182,0,0,1,70.35,62.182C66.16,61.69,61.85,60.619,57.6,61.2Zm63.751,34.194v-.625c-8.2-3.214-17.479-6.651-23.345-12.053-1.856-1.741-4.849-4.955-4.49-7.276.718-4.643,9.039-6.384,14.187-7.1l6.345-.848c-1.616-2.1-5.866-1.116-8.5-.759-6.944.937-15.8,3.169-15.264,9.642.6,7.366,12.271,13.7,20.352,16.7C113.449,94.1,118.3,95.84,121.351,95.394Zm-55.67,8.571,1.257,1.562c3.053-1.339,4.849-4.687,6.525-6.964A104.288,104.288,0,0,0,85.734,77l2.694-7.276c.239-.67.778-1.964-.419-2.321a2.374,2.374,0,0,0-2.754,1.384L82.8,75.752C79.389,83.921,76.995,87.8,71.907,95.394Zm28.912-7.946c1.377,2.143,4.789,4.2,7.243,5.759a17.889,17.889,0,0,0,3.831,2.143l4.669.67c-1.257-2.009-6.106-4.776-8.5-6.384A23.567,23.567,0,0,0,98.005,95.8,5.236,5.236,0,0,0,94.593,96.019Zm-12.331.312-2.035,3.482L76.755,104.9h3.831l5.926-8.258Z" transform="translate(-57.6 -54.184)" fill="none" stroke="#fff" stroke-miterlimit="25.412" stroke-width="2"/>
    <text id="TSGB" transform="translate(71.732 34.005)" fill="#fff" font-size="38" font-family="Arial-BoldItalicMT, Arial" font-weight="700" font-style="italic" style="isolation: isolate"><tspan x="0" y="0">TSGB</tspan></text>
    <text id="Tanzsport_Gemeinschaft_Bietigheim" data-name="Tanzsport Gemeinschaft Bietigheim" transform="translate(75.937 47.256)" fill="#fff" font-size="6" font-family="Arial-BoldItalicMT, Arial" font-weight="700" font-style="italic" style="isolation: isolate"><tspan x="0" y="0">Tanzsport Gemeinschaft Bietigheim</tspan></text>
  </g>
</svg>
